<?xml version="1.0" encoding="UTF-8"?>
<svg id="Layer_2" data-name="Layer 2" xmlns="http://www.w3.org/2000/svg" viewBox="0 0 894.88 287.03">
  <defs>
    <style>
      .cls-1 {
        /* fill: #ff5500; */
        fill:#79155B;
      }
    </style>
  </defs>
  <g id="Layer_1-2" data-name="Layer 1">
    <g>
      <g>
        <path class="cls-1" d="M167.09,222.17c-.55,.01-1.08,.04-1.59,.05-6.08,1.38-12.41,2.12-18.91,2.12-46.67,0-84.48-37.82-84.48-84.48S99.92,55.38,146.59,55.38c3.48,0,6.91,.21,10.28,.63L142.32,.11c-6.85,.05-13.93,.03-21.05-.11-1.85-.03-2.16,.25-2.44,2.07-1.79,11.84-3.75,23.87-6,36.74-.3,1.74-1.64,3.67-3.14,4.5-7.45,4.2-15.39,8.48-23.62,12.72-1.45,.77-3.79,.74-5.2-.07-10.56-5.94-21.48-12.26-32.49-18.75-1.46-.86-1.88-.78-2.94,.53-6.45,7.97-11.86,14.45-17.03,20.37-1.48,1.71-1.51,2.41-.21,4.15,4.89,6.5,9.76,13.2,14.49,19.66,2.81,3.86,5.63,7.72,8.46,11.57,1.37,1.86,1.67,3.66,.96,5.83-2.83,8.68-5.27,16.54-7.48,24.03-.73,2.44-2.1,3.71-4.61,4.24-6.37,1.37-12.73,2.79-19.12,4.2-6.45,1.44-12.91,2.88-19.38,4.27-1.47,.32-1.62,.49-1.49,1.9,.99,11.61,1.63,20.55,2.1,28.99,.11,2.1,.52,2.52,2.56,2.7,12.57,1.05,25.63,2.29,39.9,3.77,1.6,.16,3.52,1.49,4.29,2.96,2.1,4.04,4.16,8.19,6.16,12.2,1.92,3.85,3.9,7.82,5.9,11.69,1.15,2.2,1.12,4.15-.07,6.49-2.51,4.94-5,9.89-7.48,14.84-3.34,6.67-6.81,13.56-10.27,20.31-.71,1.38-.56,1.67,.48,2.51,8.68,6.93,15.32,12.35,21.54,17.57,1.37,1.15,1.82,1.14,3.29-.08,5.71-4.74,11.54-9.5,17.2-14.12,4.67-3.81,9.35-7.61,13.99-11.45,1.15-.96,2.26-1.42,3.51-1.42,.63,0,1.3,.12,2.03,.36,3.37,1.12,6.75,2.2,10.12,3.29,4.94,1.6,10.05,3.25,15.06,4.96,1.62,.56,3.29,2.25,3.82,3.85,3.03,9.27,6.01,18.72,8.89,27.86l2.88,9.11c.26,.79,.57,1.59,.9,2.42,.04,.08,.07,.16,.1,.25l28.28-7.31-7.19-57.58-.92,.03Z"/>
        <polygon class="cls-1" points="106.77 84.53 114.52 189.37 116.33 188.69 156.56 135.19 159.29 108.02 159.29 108 159.05 104.61 106.77 84.53"/>
        <polygon class="cls-1" points="160.31 150.61 116.63 188.58 163.92 170.71 163.38 163.21 163.38 163.18 160.31 150.61"/>
        <path class="cls-1" d="M218.83,183.69l-7.22-97.78-.07-.85-.97-.37-51.7-19.61,.19,2.64,2.53,34.67h.03l.66,8.78v.03l.53,1.79v.03l3.4,11.45,43.2-38.08-39.45,53.83-3.3,24.92v.04l-.26,1.93v.03l.25,3.18,.41,.16,48.17,18.65s-.01,.03-.03,.03l4.15,1.58h0s-.52-7.04-.52-7.04Z"/>
        <polygon class="cls-1" points="167.28 173.5 165.87 172.96 165.81 172.93 165.25 173.15 164.54 173.41 117.33 191.24 167.25 210.17 168.66 210.71 168.77 210.75 170 210.3 210.4 195.22 216.98 192.77 217.02 192.76 213.53 191.4 167.28 173.5"/>
        <polygon class="cls-1" points="156.12 64.96 109.14 82.49 109.11 82.5 158.8 101.59 158.79 101.33 158.8 101.33 156.12 64.96"/>
      </g>
      <g>
        <path class="cls-1" d="M252.06,134.45c0-29.14,18-48.93,45.9-48.93,21.3,0,36.83,12.37,40.41,32.3h-12.64c-3.71-13.33-13.88-21.3-28.31-21.3-20.2,0-33.12,15.67-33.12,37.93s12.37,37.93,32.57,37.93c14.84,0,25.15-7.83,28.73-21.3h12.64c-3.57,19.93-19.52,32.3-41.23,32.3-27.62,0-44.94-19.52-44.94-48.93Z"/>
        <path class="cls-1" d="M346.76,112.46h11.96l21.58,55.94,20.89-55.94h11.96l-32.3,81.91c-4.4,11.27-7.01,15.67-16.9,15.67h-13.47v-10.31h10.03c6.46,0,7.56-1.65,10.17-8.25l3.44-8.52-27.35-70.5Z"/>
        <path class="cls-1" d="M486.95,143.52v39.03h-11.27v-38.35c0-14.57-6.73-22.27-18.97-22.27-13.19,0-21.17,9.76-21.17,25.56v35.05h-11.27V112.46h9.76l1.51,9.48c4.12-5.36,11.27-10.31,23.09-10.31,15.81,0,28.31,8.66,28.31,31.89Z"/>
        <path class="cls-1" d="M509.35,122.77h-12.64v-10.31h12.64v-19.65h11.27v19.65h18.14v10.31h-18.14v41.37c0,5.91,2.06,8.11,8.11,8.11h11.13v10.31h-12.23c-13.47,0-18.28-5.91-18.28-18.28v-41.51Z"/>
        <path class="cls-1" d="M587.97,112.46v10.99h-5.63c-14.71,0-18.69,12.23-18.69,23.36v35.73h-11.27V112.46h9.76l1.51,10.58c3.3-5.36,8.66-10.58,21.17-10.58h3.16Z"/>
        <path class="cls-1" d="M594.02,147.51c0-21.3,14.29-35.87,34.77-35.87s34.77,14.57,34.77,35.87-14.29,35.87-34.77,35.87-34.77-14.57-34.77-35.87Zm58,0c0-14.98-9.35-25.84-23.23-25.84s-23.23,10.86-23.23,25.84,9.35,25.84,23.23,25.84,23.23-10.86,23.23-25.84Z"/>
        <path class="cls-1" d="M741.9,143.52v39.03h-11.27v-38.35c0-14.57-6.73-22.27-18.97-22.27-13.19,0-21.17,9.76-21.17,25.56v35.05h-11.27V112.46h9.76l1.51,9.48c4.12-5.36,11.27-10.31,23.09-10.31,15.81,0,28.31,8.66,28.31,31.89Z"/>
        <path class="cls-1" d="M755.79,147.51c0-21.3,13.47-35.87,33.26-35.87s32.71,12.51,33.26,33.26c0,1.51-.14,3.16-.28,4.81h-54.42v.96c.41,13.33,8.8,22.68,22.13,22.68,9.9,0,17.59-5.22,19.93-14.29h11.41c-2.75,14.02-14.29,24.33-30.51,24.33-21.03,0-34.77-14.43-34.77-35.87Zm54.42-7.15c-1.1-12.09-9.35-18.83-21.03-18.83-10.31,0-19.79,7.42-20.89,18.83h41.92Z"/>
        <path class="cls-1" d="M854.33,146.55l-24.88-34.08h13.47l18.55,25.97,18.83-25.97h12.78l-25.01,34.08,26.8,36.01h-13.47l-20.48-28.17-20.48,28.17h-12.78l26.66-36.01Z"/>
      </g>
    </g>
  </g>
</svg>



